<svg height="512" viewBox="0 0 512 512" width="512" xmlns="http://www.w3.org/2000/svg"><g><path d="m495.95 381.21a8.007 8.007 0 0 0 -10.71-7.24c-22.82 8.22-49.53 12.57-77.24 12.57-8.1 0-16.14-.37-24-1.11v-217.43a159.99 159.99 0 0 0 -160-160c-88.22 0-160 71.78-160 160v128.68a48.069 48.069 0 0 0 -40 47.32v24a40.04 40.04 0 0 0 40 40 41.29 41.29 0 0 0 4.17-.22c9.31 26.22 34.03 49.9 70.54 67.31 39.08 18.64 89.26 28.91 141.29 28.91 34.59 0 67.62-4.35 98.16-12.92 72.69-20.39 117.84-61.42 117.84-107.08 0-.94-.02-1.86-.05-2.79zm-44.24 55.64c-18.86 16.4-45.79 29.83-77.87 38.83-28.73 8.06-61.17 12.32-93.84 12.32-49.69 0-97.43-9.71-134.41-27.35-32.39-15.44-54.17-35.74-62.16-57.7a40.185 40.185 0 0 0 8.86-6.66 39.766 39.766 0 0 0 11.71-28.29v-4a4 4 0 0 1 4-4h12a8 8 0 0 0 0-16h-12a20.02 20.02 0 0 0 -20 20v4a24 24 0 0 1 -48 0v-24a32.036 32.036 0 0 1 32-32h48a8 8 0 0 0 0-16h-40v-128c0-79.4 64.6-144 144-144a144.012 144.012 0 0 1 144 144v224.61a8 8 0 0 0 7.02 7.94 270.469 270.469 0 0 0 32.98 1.99 254.616 254.616 0 0 0 71.27-9.79c-2.58 15.46-11.98 30.56-27.56 44.1z"/><path d="m264 312h48a8 8 0 0 0 0-16h-48a48.055 48.055 0 0 0 -48 48v24a40 40 0 0 0 80 0v-4a4 4 0 0 1 4-4h12a8 8 0 0 0 0-16h-12a20.023 20.023 0 0 0 -20 20v4a24 24 0 0 1 -48 0v-24a32.036 32.036 0 0 1 32-32z"/><path d="m240 256h-80a8 8 0 0 0 0 16v8a24 24 0 0 0 48 0v-8h32a8 8 0 0 0 0-16zm-48 24a8 8 0 0 1 -16 0v-8h16z"/><path d="m235.884 214.86a8 8 0 0 0 10.976-2.744l17.14-28.566 17.14 28.566a8 8 0 0 0 13.72-8.232l-21.53-35.884 21.53-35.884a8 8 0 0 0 -13.72-8.232l-17.14 28.566-17.14-28.566a8 8 0 0 0 -13.72 8.232l21.53 35.884-21.53 35.884a8 8 0 0 0 2.744 10.976z"/><path d="m168.008 216a8 8 0 0 0 6.852-12.117l-21.53-35.883 21.53-35.884a8 8 0 1 0 -13.72-8.232l-17.14 28.566-17.14-28.566a8 8 0 0 0 -13.72 8.232l21.53 35.884-21.53 35.884a8 8 0 1 0 13.72 8.232l17.14-28.566 17.14 28.566a8 8 0 0 0 6.868 3.884z"/></g></svg>