<?xml version="1.0" encoding="iso-8859-1"?>
<!-- Generator: Adobe Illustrator 19.0.0, SVG Export Plug-In . SVG Version: 6.00 Build 0)  -->
<svg version="1.1" id="Capa_1" xmlns="http://www.w3.org/2000/svg" xmlns:xlink="http://www.w3.org/1999/xlink" x="0px" y="0px"
	 viewBox="0 0 348.96 348.96" style="enable-background:new 0 0 348.96 348.96;" xml:space="preserve">
<g>
	<g>
		<circle cx="222.6" cy="135.12" r="19.12"/>
	</g>
</g>
<g>
	<g>
		<circle cx="126.44" cy="135.12" r="19.12"/>
	</g>
</g>
<g>
	<g>
		<path d="M174.52,0C98.209,0.088,36.368,61.929,36.28,138.24v202.4c0.014,4.418,3.607,7.989,8.025,7.975
			c2.463-0.008,4.785-1.149,6.295-3.095l43.12-56l33.6,55.6c1.446,2.375,4.02,3.828,6.8,3.84c2.766-0.068,5.329-1.468,6.88-3.76
			l33.52-53.76l33.52,53.44c2.327,3.755,7.259,4.913,11.014,2.586c1.05-0.651,1.935-1.536,2.586-2.586l33.6-55.6l43.12,56
			c2.709,3.49,7.734,4.124,11.225,1.415c1.946-1.51,3.088-3.832,3.095-6.295V138.24C312.592,61.96,250.8,0.132,174.52,0z
			 M126.6,170.24c-0.027,0-0.053,0-0.08,0v-0.08c-19.396,0-35.12-15.724-35.12-35.12s15.724-35.12,35.12-35.12
			s35.12,15.724,35.12,35.12C161.684,154.436,145.996,170.196,126.6,170.24z M222.6,170.24c-0.027,0-0.053,0-0.08,0v-0.08
			c-19.396-0.044-35.084-15.804-35.04-35.2c0.044-19.396,15.804-35.084,35.2-35.04c19.396,0.044,35.084,15.804,35.04,35.2
			C257.72,154.516,241.996,170.24,222.6,170.24z"/>
	</g>
</g>
<g>
</g>
<g>
</g>
<g>
</g>
<g>
</g>
<g>
</g>
<g>
</g>
<g>
</g>
<g>
</g>
<g>
</g>
<g>
</g>
<g>
</g>
<g>
</g>
<g>
</g>
<g>
</g>
<g>
</g>
</svg>
